<svg xmlns="http://www.w3.org/2000/svg" xmlns:xlink="http://www.w3.org/1999/xlink" width="477" height="350" fill="none" xmlns:v="https://vecta.io/nano"><g fill="#fcb040"><path d="M136.115 344.637c1.45 0 2.682 1.232 2.682 2.681S137.565 350 136.115 350s-2.682-1.232-2.682-2.682c0-1.522 1.16-2.681 2.682-2.681z"/><use xlink:href="#B"/><use xlink:href="#C"/><use xlink:href="#D"/><path d="M166.266 344.637c1.45 0 2.682 1.232 2.682 2.681S167.716 350 166.266 350s-2.681-1.232-2.681-2.682c0-1.522 1.159-2.681 2.681-2.681zm0-20.149c1.45 0 2.682 1.232 2.682 2.681s-1.232 2.682-2.682 2.682-2.681-1.232-2.681-2.682 1.159-2.681 2.681-2.681zm0-20.15c1.45 0 2.682 1.233 2.682 2.682s-1.232 2.682-2.682 2.682-2.681-1.232-2.681-2.682 1.159-2.682 2.681-2.682zm0-20.149c1.45 0 2.682 1.232 2.682 2.682s-1.232 2.682-2.682 2.682-2.681-1.232-2.681-2.682 1.159-2.682 2.681-2.682zm30.079 60.448c1.45 0 2.682 1.232 2.682 2.681S197.795 350 196.345 350s-2.682-1.232-2.682-2.682c.073-1.522 1.232-2.681 2.682-2.681zm0-20.149c1.45 0 2.682 1.232 2.682 2.681s-1.232 2.682-2.682 2.682-2.682-1.232-2.682-2.682c.073-1.449 1.232-2.681 2.682-2.681zm0-20.15c1.45 0 2.682 1.233 2.682 2.682s-1.232 2.682-2.682 2.682-2.682-1.232-2.682-2.682c.073-1.449 1.232-2.682 2.682-2.682zm0-20.149c1.45 0 2.682 1.232 2.682 2.682s-1.232 2.682-2.682 2.682-2.682-1.232-2.682-2.682c.073-1.45 1.232-2.682 2.682-2.682zm-90.381 60.448c1.45 0 2.682 1.232 2.682 2.681S107.414 350 105.964 350s-2.682-1.232-2.682-2.682c0-1.522 1.16-2.681 2.682-2.681z"/><use xlink:href="#B" x="-30.151"/><use xlink:href="#C" x="-30.151"/><use xlink:href="#D" x="-30.151"/><path d="M75.813 344.637c1.45 0 2.682 1.232 2.682 2.681S77.262 350 75.813 350s-2.682-1.232-2.682-2.682c0-1.522 1.16-2.681 2.682-2.681z"/><use xlink:href="#B" x="-60.302"/><use xlink:href="#C" x="-60.302"/><use xlink:href="#D" x="-60.302"/></g><path d="M198.592 169.455c29.209 0 55.301 2.465 72.479 6.306v-61.607H126.113v61.607c17.178-3.841 43.27-6.306 72.479-6.306z" fill="#e8e8ed"/><path d="M304.411 119.952H92.773a2.91 2.91 0 0 1-2.899-2.899v-5.798a2.91 2.91 0 0 1 2.899-2.899h211.638a2.91 2.91 0 0 1 2.899 2.899v5.798a2.91 2.91 0 0 1-2.899 2.899z" fill="#f4f4f8"/><path d="M369.424 146.117s9.423 8.408 25.658 0c0 0-2.319 15.438-12.829 24.86 0 0-13.191 6.089-25.512 6.451 0 0 10.581-7.248 12.683-31.311z" fill="#e8e8ed"/><path d="M0 226.206s16.743 10.945 30.876.943c0 0 3.914 32.035 16.453 37.181 0 0-6.958 6.016-20.222 3.914.072 0-12.466-4.639-27.107-42.038z" fill="#f4f4f8"/><path d="M243.891 57.186s-8.335-19.352-24.86-17.83c0 0 16.018-30.948 8.48-39.356 0 0 18.554 17.178 20.439 23.846 0 0 3.696 5.218-4.059 33.34z" fill="#e8e8ed"/><path d="M384.862 328.981h-59.215c-.652 0-1.232-.58-1.232-1.232v-74.653c0-.652.58-1.232 1.232-1.232h59.215c.653 0 1.232.58 1.232 1.232v74.653c0 .725-.507 1.232-1.232 1.232z" fill="#f4f4f8"/><path opacity=".5" d="M368.811 254.918l-1.189-9.2-24.439 3.159 1.19 9.2 24.438-3.159z" fill="#c4c4c4"/><path opacity=".5" d="M378.267 268.606H334.49c-.653 0-1.233-.58-1.233-1.232v-.652c0-.652.58-1.232 1.233-1.232h43.777c.652 0 1.232.58 1.232 1.232v.652a1.22 1.22 0 0 1-1.232 1.232z" fill="#ccc"/><path opacity=".25" d="M354.421 285.204H334.49c-.653 0-1.233-.58-1.233-1.232v-.58c0-.652.58-1.232 1.233-1.232h19.931c.653 0 1.232.58 1.232 1.232v.652c0 .653-.579 1.16-1.232 1.16zm23.846 0h-18.12c-.652 0-1.232-.58-1.232-1.232v-.58c0-.652.58-1.232 1.232-1.232h18.12c.652 0 1.232.58 1.232 1.232v.652c0 .653-.58 1.16-1.232 1.16z" fill="#ccc"/><path opacity=".25" d="M345.071 293.539H334.49c-.653 0-1.233-.58-1.233-1.232v-.652c0-.653.58-1.233 1.233-1.233h10.581c.653 0 1.233.58 1.233 1.233v.652c0 .652-.58 1.232-1.233 1.232zm18.7 0h-13.336c-.652 0-1.232-.58-1.232-1.232v-.652c0-.653.58-1.233 1.232-1.233h13.336c.652 0 1.232.58 1.232 1.233v.652c0 .652-.58 1.232-1.232 1.232zm14.496 0h-7.755c-.653 0-1.233-.58-1.233-1.232v-.652c0-.653.58-1.233 1.233-1.233h7.755c.652 0 1.232.58 1.232 1.233v.652c0 .652-.58 1.232-1.232 1.232z" fill="#ccc"/><path opacity=".25" d="M378.267 276.941h-30.296c-.653 0-1.233-.579-1.233-1.232v-.652c0-.652.58-1.232 1.233-1.232h30.296c.652 0 1.232.58 1.232 1.232v.652c0 .653-.58 1.232-1.232 1.232zm-36.095 0h-7.755c-.652 0-1.232-.579-1.232-1.232v-.652c0-.652.58-1.232 1.232-1.232h7.755c.653 0 1.232.58 1.232 1.232v.652a1.22 1.22 0 0 1-1.232 1.232z" fill="#ccc"/><path opacity=".25" d="M354.421 310.137H334.49c-.653 0-1.233-.58-1.233-1.232v-.653c0-.652.58-1.232 1.233-1.232h19.931c.653 0 1.232.58 1.232 1.232v.653c0 .652-.579 1.232-1.232 1.232z" fill="#ccc"/><path opacity=".25" d="M378.267 301.802h-30.296c-.653 0-1.233-.58-1.233-1.232v-.653c0-.652.58-1.232 1.233-1.232h30.296c.652 0 1.232.58 1.232 1.232v.653c0 .724-.58 1.232-1.232 1.232zm-36.095 0h-7.755c-.652 0-1.232-.58-1.232-1.232v-.653c0-.652.58-1.232 1.232-1.232h7.755c.653 0 1.232.58 1.232 1.232v.653c0 .724-.507 1.232-1.232 1.232z" fill="#ccc"/><path opacity=".8" d="M331.011 298.685H119.373a2.91 2.91 0 0 1-2.9-2.899V156.627a2.91 2.91 0 0 1 2.9-2.899h211.638a2.91 2.91 0 0 1 2.899 2.899v139.159a2.91 2.91 0 0 1-2.899 2.899z" fill="#387ed1"/><path d="M285 158.735c-1.133 0-2-.942-2-2.174V108h4v48.561c0 1.232-.867 2.174-2 2.174zM290 170h-10l.9-7.2c.7-1.7 2.3-2.8 4.1-2.8s3.4 1.1 4.1 2.8l.9 7.2z" fill="#fcb040"/><path opacity=".5" d="M70.087 241.427h91.541l9.929 14.496V197.94H70.087v43.487zm84.365 82.118h72.479v-36.239h-61.607l-10.872-14.496v50.735z" fill="#e8e8ed"/><g transform="translate(242.589,224.54) scale(0.0892)"><path fill="#fcb040" d="M936 -778Q936 -709 862 -714L827 -717Q768 -722 709.5 -725.0Q651 -728 587 -728H542Q530 -580 517 -458L689 -461Q726 -461 738.5 -448.0Q751 -435 751 -413Q751 -379 731.0 -359.5Q711 -340 674 -340H503L497 -297Q476 -132 407.5 -62.0Q339 8 219 8Q151 8 94.0 -21.5Q37 -51 10 -93Q-1 -110 -1 -134Q-1 -158 10.5 -176.0Q22 -194 39 -194Q51 -194 62.5 -186.0Q74 -178 92 -155Q140 -92 211 -92Q268 -92 306.5 -138.5Q345 -185 356 -285L362 -340H314Q291 -340 274.5 -353.0Q258 -366 258 -390Q258 -421 274.0 -437.5Q290 -454 321 -454Q349 -454 376 -455Q388 -565 402 -722Q294 -712 250.0 -687.0Q206 -662 206 -613Q206 -579 226 -548Q232 -539 232 -530Q232 -512 212.0 -498.5Q192 -485 167 -485Q140 -485 121 -501Q109 -511 98.0 -542.0Q87 -573 87 -611Q87 -735 214.5 -791.0Q342 -847 587 -847Q757 -847 887 -829Q915 -825 925.5 -812.0Q936 -799 936 -778Z M1297 -261Q1297 -213 1268 -204Q1208 -183 1136 -180Q1117 -96 1061.0 -45.5Q1005 5 934 5Q874 5 831.5 -24.0Q789 -53 767.0 -101.0Q745 -149 745 -205Q745 -281 774.0 -340.5Q803 -400 854.0 -433.5Q905 -467 967 -467Q1043 -467 1089.5 -414.5Q1136 -362 1144 -285Q1191 -288 1256 -305Q1264 -307 1270 -307Q1283 -307 1290.0 -294.0Q1297 -281 1297 -261ZM1029 -202Q998 -223 981.5 -257.0Q965 -291 965 -329Q965 -345 968 -361H963Q923 -361 896.5 -322.5Q870 -284 870 -214Q870 -159 891.5 -130.0Q913 -101 942 -101Q974 -101 997.5 -127.0Q1021 -153 1029 -202Z M1213 -163Q1213 -293 1250 -410Q1259 -439 1279.5 -452.5Q1300 -466 1337 -466Q1357 -466 1365.0 -461.0Q1373 -456 1373 -442Q1373 -426 1358 -370Q1348 -330 1342.0 -300.0Q1336 -270 1332 -226Q1365 -312 1406.0 -366.0Q1447 -420 1486.5 -443.0Q1526 -466 1559 -466Q1624 -466 1624 -401Q1624 -388 1615 -338Q1607 -298 1607 -288Q1607 -253 1632 -253Q1660 -253 1704 -297Q1717 -310 1731 -310Q1744 -310 1751.5 -298.5Q1759 -287 1759 -268Q1759 -231 1739 -210Q1711 -181 1673.5 -160.5Q1636 -140 1594 -140Q1541 -140 1513.5 -167.0Q1486 -194 1486 -240Q1486 -255 1489 -270Q1491 -290 1491 -297Q1491 -313 1480 -313Q1465 -313 1440.5 -279.5Q1416 -246 1392.0 -191.0Q1368 -136 1353 -75Q1342 -28 1327.5 -11.5Q1313 5 1282 5Q1244 5 1228.5 -35.0Q1213 -75 1213 -163Z M2206 -177Q2206 -154 2199.0 -141.0Q2192 -128 2177 -118Q2091 -60 2051 -32L1987 11Q1949 218 1887.5 336.5Q1826 455 1731 455Q1680 455 1648.0 423.5Q1616 392 1616 341Q1616 270 1672.0 188.5Q1728 107 1882 -12L1888 -51Q1871 -24 1843.5 -9.5Q1816 5 1789 5Q1727 5 1690.0 -40.0Q1653 -85 1653 -158Q1653 -238 1690.0 -309.5Q1727 -381 1788.5 -424.5Q1850 -468 1919 -468Q1941 -468 1948.5 -459.5Q1956 -451 1961 -429Q1980 -433 2005 -433Q2030 -433 2040.5 -425.5Q2051 -418 2051 -396Q2051 -384 2050 -377Q2046 -346 2025 -220Q2021 -196 2016.5 -167.5Q2012 -139 2007 -107Q2084 -167 2155 -213Q2168 -221 2178 -221Q2191 -221 2198.5 -208.5Q2206 -196 2206 -177ZM1899 -204 1931 -375Q1890 -374 1855.0 -343.5Q1820 -313 1799.0 -263.0Q1778 -213 1778 -157Q1778 -126 1790.5 -111.0Q1803 -96 1825 -96Q1848 -96 1869.0 -124.0Q1890 -152 1899 -204ZM1859 107Q1782 173 1748.0 226.0Q1714 279 1714 319Q1714 336 1720.5 347.0Q1727 358 1742 358Q1767 358 1798.5 298.0Q1830 238 1859 107Z M2619 -178Q2619 -138 2600 -116Q2563 -71 2495.5 -33.0Q2428 5 2351 5Q2246 5 2188.0 -52.0Q2130 -109 2130 -208Q2130 -277 2159.0 -336.5Q2188 -396 2239.5 -431.0Q2291 -466 2356 -466Q2414 -466 2449.0 -431.5Q2484 -397 2484 -338Q2484 -269 2434.5 -219.5Q2385 -170 2267 -141Q2292 -95 2362 -95Q2407 -95 2464.5 -126.5Q2522 -158 2564 -209Q2576 -223 2591 -223Q2604 -223 2611.5 -211.0Q2619 -199 2619 -178ZM2251 -221V-219Q2310 -233 2344.0 -261.0Q2378 -289 2378 -326Q2378 -345 2367.5 -356.5Q2357 -368 2339 -368Q2302 -368 2276.5 -325.0Q2251 -282 2251 -221Z"/></g><defs ><path id="B" d="M136.115 324.488c1.45 0 2.682 1.232 2.682 2.681s-1.232 2.682-2.682 2.682-2.682-1.232-2.682-2.682 1.16-2.681 2.682-2.681z"/><path id="C" d="M136.115 304.338c1.45 0 2.682 1.233 2.682 2.682s-1.232 2.682-2.682 2.682-2.682-1.232-2.682-2.682 1.16-2.682 2.682-2.682z"/><path id="D" d="M136.115 284.189c1.45 0 2.682 1.232 2.682 2.682s-1.232 2.682-2.682 2.682-2.682-1.232-2.682-2.682 1.16-2.682 2.682-2.682z"/></defs></svg>