<svg xmlns="http://www.w3.org/2000/svg" xmlns:xlink="http://www.w3.org/1999/xlink" width="500" height="359" fill="none" xmlns:v="https://vecta.io/nano"><path fill="#fff" d="M0 0h500v358H0z"/><path d="M283.411 6.658c-55.33.605-68.362 49.267-108.108 96.15S83.887 156.046 83.9 204.531c.014 48.584 38.551 85.177 86.936 89.77 134.039 12.724 224.37-87.887 223.866-159.85-.509-71.429-39.834-128.576-111.291-127.793zM170.28 59.361c7.493 7.944-.19 27.454-17.161 43.575s-36.805 22.75-44.298 14.806.19-27.454 17.16-43.576 36.805-22.749 44.299-14.804z" fill="#fafafb"/><g fill="#387ed1"><path d="M226.834 170.451c-35.888-16.774-44.937-34.495-41.438-45.484 2.775-8.72 12.893-12.882 25.778-10.598l-1.675 9.392c-7.744-1.37-13.763.272-14.98 4.09-1.888 5.934 6.241 19.876 36.38 33.963l-4.065 8.637h0zm34.38 0l-4.065-8.637c30.14-14.087 38.268-28.03 36.379-33.963-1.216-3.818-7.236-5.462-14.978-4.09l-1.675-9.392c12.885-2.284 23 1.878 25.777 10.598 3.499 10.99-5.55 28.71-41.438 45.484h0zm-20.864 36.75h8.4v-49.35h-8.4v49.35z"/><path d="M197.301 103.25l23.305 63.125a25.51 25.51 0 0 0 6.349 9.646 25.52 25.52 0 0 0 9.949 5.861c3.721 1.168 7.66 1.468 11.514.877s7.523-2.057 10.723-4.287c4.281-2.981 7.546-7.203 9.355-12.097l23.305-63.125h-94.5zm52.412 103.95h-10.324c-9.327 0-16.888 7.521-16.888 16.8h44.1c0-9.279-7.562-16.8-16.888-16.8"/></g><path d="M219.35 232.4h49.35V224h-49.35v8.4z" fill="#477ecb"/><path d="M374.699 49.36c.011.684-.183 1.356-.557 1.928a3.42 3.42 0 0 1-1.541 1.285c-.734.306-1.551.348-2.311.117s-1.417-.718-1.858-1.38a3.42 3.42 0 0 1 .447-4.333 3.42 3.42 0 0 1 1.738-.919c.657-.13 1.338-.063 1.958.19a3.42 3.42 0 0 1 1.529 1.237 3.43 3.43 0 0 1 .595 1.874h0zm29.647 0a3.43 3.43 0 0 1-.575 1.901c-.376.563-.91 1.002-1.535 1.261a3.42 3.42 0 0 1-1.976.195c-.664-.132-1.274-.458-1.752-.936-.318-.317-.571-.694-.743-1.109a3.42 3.42 0 0 1-.002-2.618 3.42 3.42 0 0 1 2.493-2.046 3.42 3.42 0 0 1 3.511 1.452c.376.562.578 1.223.579 1.899v.001zm-29.647 29.648c0 .45-.088.895-.26 1.31a3.42 3.42 0 0 1-.742 1.11 3.41 3.41 0 0 1-1.11.741 3.42 3.42 0 0 1-1.31.259c-.676 0-1.337-.201-1.9-.577s-1-.91-1.258-1.535-.326-1.312-.194-1.976a3.42 3.42 0 0 1 .936-1.751c.478-.478 1.087-.804 1.751-.936s1.351-.064 1.975.195a3.42 3.42 0 0 1 1.535 1.259c.376.562.577 1.223.577 1.899h0zm29.647 0c.001.792-.273 1.559-.775 2.171a3.42 3.42 0 0 1-4.257.848 3.42 3.42 0 0 1-1.548-1.708c-.193-.467-.281-.971-.256-1.476a3.41 3.41 0 0 1 .4-1.444c.238-.446.572-.833.978-1.135a3.42 3.42 0 0 1 1.37-.608c.495-.099 1.007-.086 1.497.036a3.42 3.42 0 0 1 1.339.673 3.41 3.41 0 0 1 .922 1.18 3.42 3.42 0 0 1 .33 1.462h0zm29.648 0c0 .449-.089.894-.26 1.309s-.424.792-.742 1.11a3.41 3.41 0 0 1-1.109.741 3.42 3.42 0 0 1-2.618 0 3.41 3.41 0 0 1-1.109-.741c-.318-.318-.57-.695-.742-1.11s-.26-.86-.26-1.309a3.42 3.42 0 0 1 3.42-3.42 3.42 3.42 0 0 1 3.42 3.42h0zm29.648 0a3.42 3.42 0 0 1-3.42 3.42 3.42 3.42 0 0 1-3.42-3.42 3.42 3.42 0 0 1 3.42-3.42 3.42 3.42 0 0 1 3.42 3.42h0zm-88.943 29.648a3.42 3.42 0 0 1-.26 1.31 3.41 3.41 0 0 1-.742 1.11c-.318.318-.695.57-1.11.742a3.41 3.41 0 0 1-1.31.259 3.42 3.42 0 0 1-1.9-.577c-.562-.376-1-.91-1.258-1.535a3.42 3.42 0 0 1 .742-3.726 3.42 3.42 0 0 1 1.751-.936c.663-.132 1.351-.064 1.975.195s1.159.697 1.535 1.259.577 1.223.577 1.899h0zm29.647 0a3.42 3.42 0 0 1-2.11 3.161 3.42 3.42 0 0 1-1.977.195c-.663-.132-1.273-.457-1.751-.936-.318-.317-.571-.693-.743-1.108a3.4 3.4 0 0 1-.26-1.31c0-.906.361-1.776 1.002-2.418a3.43 3.43 0 0 1 2.417-1.004c.908 0 1.778.36 2.419 1.002.318.318.57.695.742 1.11a3.41 3.41 0 0 1 .261 1.308h0zm29.648 0c0 .45-.089.894-.26 1.309s-.424.792-.742 1.11a3.42 3.42 0 0 1-2.418 1.001 3.42 3.42 0 0 1-2.418-1.001c-.318-.318-.57-.695-.742-1.11s-.26-.859-.26-1.309a3.42 3.42 0 0 1 3.42-3.42 3.42 3.42 0 0 1 3.42 3.42h0zm29.648 0a3.42 3.42 0 0 1-3.42 3.42 3.42 3.42 0 0 1-3.42-3.42 3.42 3.42 0 0 1 3.42-3.42 3.42 3.42 0 0 1 3.42 3.42zm-59.296 29.648c0 .677-.2 1.339-.576 1.902a3.43 3.43 0 0 1-1.535 1.261c-.626.259-1.314.326-1.978.194a3.42 3.42 0 0 1-2.752-3.357c0-.907.36-1.777 1.001-2.419.478-.478 1.088-.805 1.751-.937s1.352-.065 1.978.194a3.42 3.42 0 0 1 1.535 1.261c.376.563.576 1.225.576 1.901h0zm29.648 0a3.42 3.42 0 0 1-.78 2.166c-.502.611-1.2 1.028-1.975 1.183s-1.58.035-2.278-.337-1.245-.973-1.549-1.703a3.42 3.42 0 0 1 .742-3.728c.478-.478 1.088-.805 1.751-.937s1.352-.065 1.978.194a3.42 3.42 0 0 1 1.535 1.261c.376.563.576 1.225.576 1.901h0zm29.648 0c0 .45-.089.894-.26 1.309s-.424.792-.742 1.11a3.42 3.42 0 0 1-2.418 1.001 3.42 3.42 0 0 1-2.418-1.001c-.318-.318-.57-.695-.742-1.11s-.26-.859-.26-1.309a3.42 3.42 0 0 1 3.42-3.42 3.42 3.42 0 0 1 3.42 3.42h0z" fill="#387ed1"/><path d="M378 5.776a5.78 5.78 0 0 1 .439-2.21c.291-.701.716-1.337 1.252-1.874A5.77 5.77 0 0 1 383.775 0c.758 0 1.509.149 2.21.439s1.337.715 1.873 1.252.962 1.173 1.252 1.873a5.78 5.78 0 0 1 .44 2.21c0 1.532-.608 3.001-1.691 4.084s-2.552 1.692-4.083 1.692-3.001-.608-4.084-1.691S378 7.307 378 5.776" fill="#fa5751"/><path d="M93.85 180.04L78.999 191.9 76 173l17.85 7.04zM75.5 80.501h147v-14h-147v14zM304.4 238h29.4v-14h-29.4v14zm13.65 29.4h60v-14h-60v14z" fill="#fcb040"/><g transform="translate(86,310.5) scale(0.75)" fill="none" stroke="#d18a2c" stroke-width="1.6" stroke-linecap="round" stroke-linejoin="round">
<path d="M7 3h10v5a5 5 0 0 1-5 5 5 5 0 0 1-5-5V3z"/>
<path d="M7 4H4a3 3 0 0 0 3 5"/>
<path d="M17 4h3a3 3 0 0 1-3 5"/>
<path d="M12 13v3"/>
<path d="M9 20h6"/>
<path d="M10 16.5h4l.8 3.5H9.2z"/>
</g><g transform="translate(0,339.5) scale(0.75)" fill="none" stroke="#d18a2c" stroke-width="1.6" stroke-linecap="round" stroke-linejoin="round">
<path d="M7 3h10v5a5 5 0 0 1-5 5 5 5 0 0 1-5-5V3z"/>
<path d="M7 4H4a3 3 0 0 0 3 5"/>
<path d="M17 4h3a3 3 0 0 1-3 5"/>
<path d="M12 13v3"/>
<path d="M9 20h6"/>
<path d="M10 16.5h4l.8 3.5H9.2z"/>
</g><text x="115.3" y="325.5" font-family="Arial, Helvetica, sans-serif" font-size="15.5" fill="#d18a2c">Fintech Weekly Startup of the Year - 2023</text><text x="29.3" y="355" font-family="Arial, Helvetica, sans-serif" font-size="14.5" textLength="465" lengthAdjust="spacingAndGlyphs" fill="#d18a2c">Nimbus, Aurex, Quantra - Best Platform Award - 2021, 2022 &amp; 2023</text></svg>