<svg width="103" height="18" viewBox="0 0 103 18" fill="none" xmlns="http://www.w3.org/2000/svg">
<path d="M1 3.68998C1 1.65206 2.65206 0 4.68998 0H15.0219C17.0598 0 18.7119 1.65206 18.7119 3.68998V14.0219C18.7119 16.0598 17.0598 17.7119 15.0219 17.7119H4.68998C2.65206 17.7119 1 16.0598 1 14.0219V3.68998Z" fill="white"/>
<path d="M4.54238 0C2.58598 0 1 1.58598 1 3.54238V4.87077H5.34818C5.77702 4.87077 6.15774 5.14517 6.29335 5.552L8.28025 11.5127H11.4316L13.4185 5.55201C13.5541 5.14518 13.9349 4.87077 14.3637 4.87077H18.7119V3.54238C18.7119 1.58598 17.1259 0 15.1695 0H4.54238Z" fill="#FF5722"/>
<path d="M18.7119 6.64196H14.9222L12.9353 12.6027C12.7997 13.0095 12.419 13.2839 11.9901 13.2839H7.72174C7.29291 13.2839 6.91218 13.0095 6.77658 12.6027L4.78967 6.64196H1V14.1695C1 16.1259 2.58598 17.7119 4.54238 17.7119H15.1695C17.1259 17.7119 18.7119 16.1259 18.7119 14.1695V6.64196Z" fill="#FF5722"/>
<text x="22.5" y="14.8" font-family="Arial, Helvetica, sans-serif" font-weight="700" font-size="15.5" letter-spacing="0.2" fill="#525E72">Optix</text>
</svg>
